<?xml version="1.0" standalone="no"?>
<!DOCTYPE svg PUBLIC "-//W3C//DTD SVG 20010904//EN"
 "http://www.w3.org/TR/2001/REC-SVG-20010904/DTD/svg10.dtd">
<svg version="1.0" xmlns="http://www.w3.org/2000/svg"
 width="400.000000pt" height="400.000000pt" viewBox="0 0 400.000000 400.000000"
 preserveAspectRatio="xMidYMid meet">
<metadata>
Created by potrace 1.14, written by Peter Selinger 2001-2017
</metadata>
<g transform="translate(0.000000,400.000000) scale(0.100000,-0.100000)"
fill="#000000" stroke="none">
<path d="M1820 3949 c-434 -45 -839 -235 -1159 -544 -180 -174 -306 -346 -410
-559 -360 -737 -221 -1600 354 -2195 347 -359 770 -561 1263 -603 478 -41 987
122 1375 440 99 82 260 250 336 352 250 337 387 743 389 1155 3 681 -376 1338
-976 1692 -355 209 -773 303 -1172 262z"/>
</g>
</svg>
